<svg width="20" height="19" viewBox="0 0 20 19" fill="none" xmlns="http://www.w3.org/2000/svg">
<path d="M14.1418 0H5.82268C3.11515 0 0.912476 2.20267 0.912476 4.91021V13.2295C0.912476 15.9369 3.11515 18.1395 5.82268 18.1395H14.1419C16.8493 18.1395 19.052 15.9369 19.052 13.2295V4.91021C19.052 2.20267 16.8493 0 14.1418 0V0ZM9.98224 14.0297C7.24731 14.0297 5.02235 11.8047 5.02235 9.06977C5.02235 6.33483 7.24731 4.10988 9.98224 4.10988C12.7172 4.10988 14.9421 6.33483 14.9421 9.06977C14.9421 11.8047 12.7172 14.0297 9.98224 14.0297ZM15.0607 5.27958C14.2525 5.27958 13.5951 4.62221 13.5951 3.81399C13.5951 3.00577 14.2525 2.34826 15.0607 2.34826C15.869 2.34826 16.5265 3.00577 16.5265 3.81399C16.5265 4.62221 15.869 5.27958 15.0607 5.27958Z" fill="white"/>
</svg>
