<svg width="16" height="19" viewBox="0 0 16 19" fill="none" xmlns="http://www.w3.org/2000/svg">
<path d="M15.9039 4.5488C14.8686 4.5488 13.9135 4.20585 13.1465 3.6273C12.2668 2.96407 11.6347 1.9912 11.4115 0.869875C11.3562 0.592822 11.3265 0.306912 11.3236 0.013916H8.36641V8.09451L8.36286 12.5206C8.36286 13.7039 7.59229 14.7073 6.52411 15.0602C6.21411 15.1625 5.87931 15.2111 5.53069 15.192C5.0857 15.1675 4.66871 15.0332 4.30627 14.8164C3.53499 14.3551 3.01206 13.5183 2.99789 12.561C2.97557 11.0649 4.1851 9.84504 5.6802 9.84504C5.97532 9.84504 6.25875 9.89323 6.52411 9.98074V7.77211V6.97815C6.24422 6.9367 5.95938 6.91509 5.67134 6.91509C4.03489 6.91509 2.50436 7.59532 1.41032 8.8208C0.583416 9.74691 0.0874132 10.9285 0.0108871 12.1674C-0.0893764 13.795 0.506181 15.3422 1.66116 16.4837C1.83086 16.6513 2.00907 16.8068 2.19542 16.9503C3.18566 17.7124 4.39626 18.1255 5.67134 18.1255C5.95938 18.1255 6.24422 18.1042 6.52411 18.0627C7.71523 17.8863 8.81423 17.3411 9.68152 16.4837C10.7472 15.4304 11.336 14.032 11.3424 12.5437L11.3272 5.93406C11.8356 6.32626 12.3915 6.65079 12.9881 6.90269C13.916 7.29417 14.8998 7.49257 15.9124 7.49222V5.34488V4.54809C15.9131 4.5488 15.9046 4.5488 15.9039 4.5488Z" fill="white"/>
</svg>
